<?xml version="1.0" encoding="UTF-8"?>
<!DOCTYPE svg PUBLIC "-//W3C//DTD SVG 1.1//EN" "http://www.w3.org/Graphics/SVG/1.1/DTD/svg11.dtd">
<svg xmlns="http://www.w3.org/2000/svg" version="1.1" width="512px" height="512px" style="shape-rendering:geometricPrecision; text-rendering:geometricPrecision; image-rendering:optimizeQuality; fill-rule:evenodd; clip-rule:evenodd" xmlns:xlink="http://www.w3.org/1999/xlink">
<g><path style="opacity:0.977" fill="#585858" d="M 295.5,29.5 C 295.903,39.1103 292.236,46.6103 284.5,52C 244.501,52.5 204.501,52.6667 164.5,52.5C 164.795,54.7354 164.461,56.7354 163.5,58.5C 163.5,52.8333 163.5,47.1667 163.5,41.5C 162.943,37.1116 164.61,33.9449 168.5,32C 210.755,26.3359 253.088,25.5025 295.5,29.5 Z"/></g>
<g><path style="opacity:1" fill="#474647" d="M 295.5,29.5 C 299.466,30.1621 303.466,30.4955 307.5,30.5C 306.432,31.4345 305.099,31.7678 303.5,31.5C 302.35,40.1194 299.516,48.1194 295,55.5C 291.309,59.8542 286.642,62.5209 281,63.5C 242.239,62.5035 203.406,62.1702 164.5,62.5C 164.5,65.8333 164.5,69.1667 164.5,72.5C 164.5,74.1667 164.5,75.8333 164.5,77.5C 163.51,71.3554 163.177,65.0221 163.5,58.5C 164.461,56.7354 164.795,54.7354 164.5,52.5C 204.501,52.6667 244.501,52.5 284.5,52C 292.236,46.6103 295.903,39.1103 295.5,29.5 Z"/></g>
<g><path style="opacity:0.994" fill="#343334" d="M 307.5,30.5 C 309.952,31.0654 312.285,31.7321 314.5,32.5C 312.833,32.5 311.167,32.5 309.5,32.5C 307.1,44.7005 303.1,56.3672 297.5,67.5C 293.183,73.5507 287.849,75.384 281.5,73C 242.501,72.5 203.501,72.3333 164.5,72.5C 164.5,69.1667 164.5,65.8333 164.5,62.5C 203.406,62.1702 242.239,62.5035 281,63.5C 286.642,62.5209 291.309,59.8542 295,55.5C 299.516,48.1194 302.35,40.1194 303.5,31.5C 305.099,31.7678 306.432,31.4345 307.5,30.5 Z"/></g>
<g><path style="opacity:0.999" fill="#202020" d="M 314.5,32.5 C 318.667,33.937 320.667,36.937 320.5,41.5C 319.669,53.9934 319.169,66.66 319,79.5C 317.961,80.2438 317.461,81.2438 317.5,82.5C 314.718,83.0612 311.884,83.3945 309,83.5C 264.001,78.1808 219.001,78.1808 174,83.5C 171.413,83.4448 168.913,83.1115 166.5,82.5C 165.559,80.9505 164.893,79.2838 164.5,77.5C 164.5,75.8333 164.5,74.1667 164.5,72.5C 203.501,72.3333 242.501,72.5 281.5,73C 287.849,75.384 293.183,73.5507 297.5,67.5C 303.1,56.3672 307.1,44.7005 309.5,32.5C 311.167,32.5 312.833,32.5 314.5,32.5 Z"/></g>
<g><path style="opacity:0.999" fill="#9cc3e7" d="M 320.5,41.5 C 330.188,43.1151 339.855,44.9484 349.5,47C 352.936,48.2739 355.603,50.4406 357.5,53.5C 356.842,54.7933 356.508,56.2933 356.5,58C 357.493,68.5634 358.827,79.2301 360.5,90C 359.78,94.2713 358.113,98.1047 355.5,101.5C 352.01,103.455 348.344,104.955 344.5,106C 351.346,106.172 358.013,106.672 364.5,107.5C 351.482,107.339 338.482,107.673 325.5,108.5C 324.298,104.286 323.631,99.9522 323.5,95.5C 323.343,94.1266 323.51,92.7932 324,91.5C 329.281,96.3947 335.448,98.228 342.5,97C 345.513,95.3208 347.846,92.9875 349.5,90C 348.741,84.8717 348.241,79.705 348,74.5C 347.667,74.8333 347.333,75.1667 347,75.5C 346.2,71.1452 345.534,66.4785 345,61.5C 343.35,60.1092 342.85,58.6092 343.5,57C 340.679,55.1776 338.179,53.0109 336,50.5C 333.947,51.2665 332.447,52.5998 331.5,54.5C 329.276,64.2495 326.943,74.2495 324.5,84.5C 323.178,84.33 322.011,84.6634 321,85.5C 320.583,84.244 319.75,83.5774 318.5,83.5C 317.833,83.5 317.5,83.1667 317.5,82.5C 317.461,81.2438 317.961,80.2438 319,79.5C 319.169,66.66 319.669,53.9934 320.5,41.5 Z"/></g>
<g><path style="opacity:0.994" fill="#e2f4fa" d="M 163.5,41.5 C 163.5,47.1667 163.5,52.8333 163.5,58.5C 163.177,65.0221 163.51,71.3554 164.5,77.5C 164.893,79.2838 165.559,80.9505 166.5,82.5C 163.573,85.2886 161.573,88.622 160.5,92.5C 145.191,93.4181 129.858,93.7514 114.5,93.5C 115.446,79.9316 118.613,66.9316 124,54.5C 127.639,50.2658 132.139,47.4324 137.5,46C 146.161,44.39 154.827,42.89 163.5,41.5 Z"/></g>
<g><path style="opacity:1" fill="#82b1e1" d="M 357.5,53.5 C 360.051,55.5777 361.884,58.2444 363,61.5C 366.591,76.7132 369.424,92.0465 371.5,107.5C 369.167,107.5 366.833,107.5 364.5,107.5C 358.013,106.672 351.346,106.172 344.5,106C 348.344,104.955 352.01,103.455 355.5,101.5C 358.113,98.1047 359.78,94.2713 360.5,90C 358.827,79.2301 357.493,68.5634 356.5,58C 356.508,56.2933 356.842,54.7933 357.5,53.5 Z"/></g>
<g><path style="opacity:1" fill="#b2d4f1" d="M 323.5,95.5 C 322.245,91.4206 320.578,87.4206 318.5,83.5C 319.75,83.5774 320.583,84.244 321,85.5C 322.011,84.6634 323.178,84.33 324.5,84.5C 326.943,74.2495 329.276,64.2495 331.5,54.5C 332.447,52.5998 333.947,51.2665 336,50.5C 338.179,53.0109 340.679,55.1776 343.5,57C 342.85,58.6092 343.35,60.1092 345,61.5C 345.534,66.4785 346.2,71.1452 347,75.5C 347.333,75.1667 347.667,74.8333 348,74.5C 348.241,79.705 348.741,84.8717 349.5,90C 347.846,92.9875 345.513,95.3208 342.5,97C 335.448,98.228 329.281,96.3947 324,91.5C 323.51,92.7932 323.343,94.1266 323.5,95.5 Z"/></g>
<g><path style="opacity:1" fill="#b6d6f1" d="M 160.5,92.5 C 160.57,96.4248 159.903,100.091 158.5,103.5C 158.5,102.5 158.5,101.5 158.5,100.5C 143.83,100.333 129.163,100.5 114.5,101C 113.901,102.622 113.234,104.122 112.5,105.5C 112.74,101.394 113.407,97.3939 114.5,93.5C 129.858,93.7514 145.191,93.4181 160.5,92.5 Z"/></g>
<g><path style="opacity:0.999" fill="#9bc2e7" d="M 158.5,103.5 C 158.5,105.167 158.5,106.833 158.5,108.5C 150.862,107.687 143.196,107.354 135.5,107.5C 127.833,107.5 120.167,107.5 112.5,107.5C 112.5,106.833 112.5,106.167 112.5,105.5C 113.234,104.122 113.901,102.622 114.5,101C 129.163,100.5 143.83,100.333 158.5,100.5C 158.5,101.5 158.5,102.5 158.5,103.5 Z"/></g>
<g><path style="opacity:1" fill="#fae2a1" d="M 112.5,107.5 C 120.167,107.5 127.833,107.5 135.5,107.5C 141.206,108.144 146.873,109.311 152.5,111C 131.539,112.908 110.539,114.075 89.5,114.5C 90.3534,111.482 92.3534,109.649 95.5,109C 101.123,107.971 106.79,107.471 112.5,107.5 Z"/></g>
<g><path style="opacity:0.994" fill="#f8db99" d="M 364.5,107.5 C 366.833,107.5 369.167,107.5 371.5,107.5C 377.389,107.45 383.056,108.116 388.5,109.5C 385.266,109.205 382.266,109.871 379.5,111.5C 380.246,112.736 380.579,114.07 380.5,115.5C 358.5,115.5 336.5,115.5 314.5,115.5C 316.023,110.075 319.689,107.742 325.5,108.5C 338.482,107.673 351.482,107.339 364.5,107.5 Z"/></g>
<g><path style="opacity:1" fill="#f2c281" d="M 135.5,107.5 C 143.196,107.354 150.862,107.687 158.5,108.5C 160.099,108.232 161.432,108.566 162.5,109.5C 160.08,109.292 157.747,109.626 155.5,110.5C 155.08,112.326 155.08,114.326 155.5,116.5C 133.141,115.844 111.141,116.511 89.5,118.5C 89.1667,118.5 88.8333,118.5 88.5,118.5C 88.4326,117.041 88.7659,115.708 89.5,114.5C 110.539,114.075 131.539,112.908 152.5,111C 146.873,109.311 141.206,108.144 135.5,107.5 Z"/></g>
<g><path style="opacity:1" fill="#f0b26e" d="M 388.5,109.5 C 389.167,109.5 389.833,109.5 390.5,109.5C 388.36,112.613 385.36,113.946 381.5,113.5C 381.5,115.167 381.5,116.833 381.5,118.5C 358.603,117.86 335.936,118.527 313.5,120.5C 313.629,118.784 313.962,117.117 314.5,115.5C 336.5,115.5 358.5,115.5 380.5,115.5C 380.579,114.07 380.246,112.736 379.5,111.5C 382.266,109.871 385.266,109.205 388.5,109.5 Z"/></g>
<g><path style="opacity:1" fill="#f0ab65" d="M 162.5,109.5 C 163.791,109.263 164.791,109.596 165.5,110.5C 162.886,110.277 161.219,111.444 160.5,114C 159.207,114.49 157.873,114.657 156.5,114.5C 156.5,115.833 156.5,117.167 156.5,118.5C 134.167,118.5 111.833,118.5 89.5,118.5C 111.141,116.511 133.141,115.844 155.5,116.5C 155.08,114.326 155.08,112.326 155.5,110.5C 157.747,109.626 160.08,109.292 162.5,109.5 Z"/></g>
<g><path style="opacity:1" fill="#ed9346" d="M 165.5,110.5 C 166.458,110.953 167.292,111.619 168,112.5C 168.84,115.202 169.673,117.868 170.5,120.5C 142.736,121.828 115.069,121.828 87.5,120.5C 87.8333,119.833 88.1667,119.167 88.5,118.5C 88.8333,118.5 89.1667,118.5 89.5,118.5C 111.833,118.5 134.167,118.5 156.5,118.5C 156.5,117.167 156.5,115.833 156.5,114.5C 157.873,114.657 159.207,114.49 160.5,114C 161.219,111.444 162.886,110.277 165.5,110.5 Z"/></g>
<g><path style="opacity:0.986" fill="#c46b35" d="M 87.5,120.5 C 115.069,121.828 142.736,121.828 170.5,120.5C 218.167,120.5 265.833,120.5 313.5,120.5C 340.833,121.833 368.167,121.833 395.5,120.5C 416.833,120.5 438.167,120.5 459.5,120.5C 459.5,123.5 459.5,126.5 459.5,129.5C 306.163,149.167 152.83,168.834 -0.5,188.5C -0.5,177.5 -0.5,166.5 -0.5,155.5C 4.9861,136.184 17.6528,124.684 37.5,121C 54.1633,120.5 70.83,120.333 87.5,120.5 Z"/></g>
<g><path style="opacity:1" fill="#eb8d3e" d="M 390.5,109.5 C 393.803,112.311 395.47,115.978 395.5,120.5C 368.167,121.833 340.833,121.833 313.5,120.5C 335.936,118.527 358.603,117.86 381.5,118.5C 381.5,116.833 381.5,115.167 381.5,113.5C 385.36,113.946 388.36,112.613 390.5,109.5 Z"/></g>
<g><path style="opacity:1" fill="#be6734" d="M 459.5,120.5 C 460.167,120.5 460.833,120.5 461.5,120.5C 460.713,134.16 460.046,147.827 459.5,161.5C 306.165,180.834 152.832,200.167 -0.5,219.5C -0.5,209.167 -0.5,198.833 -0.5,188.5C 152.83,168.834 306.163,149.167 459.5,129.5C 459.5,126.5 459.5,123.5 459.5,120.5 Z"/></g>
<g><path style="opacity:1" fill="#ab5a30" d="M 467.5,120.5 C 468.833,120.5 470.167,120.5 471.5,120.5C 469.059,158.352 465.059,196.019 459.5,233.5C 306.078,252.799 152.744,272.466 -0.5,292.5C -0.5,285.833 -0.5,279.167 -0.5,272.5C 152.73,252.346 306.063,232.68 459.5,213.5C 462.706,182.543 465.372,151.543 467.5,120.5 Z"/></g>
<g><path style="opacity:0.999" fill="#9e522e" d="M 472.5,120.5 C 474.626,121.048 476.626,121.715 478.5,122.5C 477.5,122.5 476.5,122.5 475.5,122.5C 472.853,171.507 467.52,220.174 459.5,268.5C 340.843,283.665 222.177,298.832 103.5,314C 106.036,314.186 108.369,314.686 110.5,315.5C 101.161,315.334 91.8274,315.5 82.5,316C 75.6561,316.037 68.9894,317.037 62.5,319C 60.0358,321.644 58.5358,324.81 58,328.5C 56.7832,334.101 56.2832,339.768 56.5,345.5C 45.8281,345.667 35.1615,345.5 24.5,345C 18.6684,342.92 13.3351,340.087 8.5,336.5C 4.20772,332.223 1.20772,327.223 -0.5,321.5C -0.5,318.5 -0.5,315.5 -0.5,312.5C 152.776,292.507 306.11,272.84 459.5,253.5C 462.157,229.102 465.324,204.768 469,180.5C 470.366,160.508 471.533,140.508 472.5,120.5 Z"/></g>
<g><path style="opacity:1" fill="#844128" d="M 489.5,126.5 C 493.603,128.216 496.936,130.883 499.5,134.5C 497.955,135.23 497.122,136.563 497,138.5C 496.609,149.545 495.776,160.545 494.5,171.5C 496.199,171.34 497.866,171.506 499.5,172C 491.406,172.196 486.073,176.03 483.5,183.5C 483.059,208.455 481.225,233.455 478,258.5C 472.632,283.637 466.799,308.637 460.5,333.5C 459.738,334.628 459.071,335.795 458.5,337C 443.177,338.999 427.844,340.832 412.5,342.5C 405.833,336.5 399.5,330.167 393.5,323.5C 415.438,320.366 437.438,317.699 459.5,315.5C 463.185,299.094 467.019,282.761 471,266.5C 478.291,219.758 483.125,172.758 485.5,125.5C 486.736,126.246 488.07,126.579 489.5,126.5 Z"/></g>
<g><path style="opacity:1" fill="#b86233" d="M 461.5,120.5 C 462.833,120.5 464.167,120.5 465.5,120.5C 463.294,141.259 461.294,162.092 459.5,183C 459.419,185.625 458.752,187.959 457.5,190C 304.846,209.665 152.179,229.165 -0.5,248.5C -0.5,238.833 -0.5,229.167 -0.5,219.5C 152.832,200.167 306.165,180.834 459.5,161.5C 460.046,147.827 460.713,134.16 461.5,120.5 Z"/></g>
<g><path style="opacity:1" fill="#b25e32" d="M 465.5,120.5 C 466.167,120.5 466.833,120.5 467.5,120.5C 465.372,151.543 462.706,182.543 459.5,213.5C 306.063,232.68 152.73,252.346 -0.5,272.5C -0.5,264.5 -0.5,256.5 -0.5,248.5C 152.179,229.165 304.846,209.665 457.5,190C 458.752,187.959 459.419,185.625 459.5,183C 461.294,162.092 463.294,141.259 465.5,120.5 Z"/></g>
<g><path style="opacity:1" fill="#612a20" d="M 499.5,134.5 C 505.317,140.467 509.317,147.467 511.5,155.5C 511.5,211.167 511.5,266.833 511.5,322.5C 509.901,329.22 508.234,336.053 506.5,343C 506.042,346.249 506.042,349.249 506.5,352C 505.833,352.667 505.167,353.333 504.5,354C 505.028,357.405 505.028,360.571 504.5,363.5C 503.975,364.192 503.308,364.692 502.5,365C 503.725,367.66 503.392,370.327 501.5,373C 501.377,375.456 501.377,377.956 501.5,380.5C 500.96,381.748 500.293,382.915 499.5,384C 499.587,386.537 499.587,389.037 499.5,391.5C 498.96,392.748 498.293,393.915 497.5,395C 497.587,397.537 497.587,400.037 497.5,402.5C 495.979,404.286 495.646,406.119 496.5,408C 495.167,413 493.833,418 492.5,423C 492.5,425.333 492.5,427.667 492.5,430C 491.142,431.832 490.808,433.665 491.5,435.5C 490.167,440.5 488.833,445.5 487.5,450.5C 487.709,451.086 488.043,451.586 488.5,452C 487.19,458.663 485.524,465.496 483.5,472.5C 484.192,474.335 483.858,476.168 482.5,478C 483.305,479.113 483.972,480.279 484.5,481.5C 480.302,482.901 475.968,483.735 471.5,484C 459.171,484.5 446.838,484.667 434.5,484.5C 439.045,483.051 443.711,481.717 448.5,480.5C 451.09,479.872 453.423,478.705 455.5,477C 371.828,476.822 288.162,476.155 204.5,475C 202.5,474.667 200.5,474.333 198.5,474C 199.833,473.667 201.167,473.333 202.5,473C 193.167,472.667 183.833,472.333 174.5,472C 180.231,471.79 185.897,471.124 191.5,470C 189.833,469.667 188.167,469.333 186.5,469C 281.938,466.159 377.272,461.659 472.5,455.5C 473.127,454.583 473.461,453.583 473.5,452.5C 474.369,450.283 474.702,447.95 474.5,445.5C 475.333,408.336 475.833,371.002 476,333.5C 479.711,328.41 482.044,322.743 483,316.5C 483.5,305.839 483.667,295.172 483.5,284.5C 483.5,250.833 483.5,217.167 483.5,183.5C 486.073,176.03 491.406,172.196 499.5,172C 497.866,171.506 496.199,171.34 494.5,171.5C 495.776,160.545 496.609,149.545 497,138.5C 497.122,136.563 497.955,135.23 499.5,134.5 Z"/></g>
<g><path style="opacity:1" fill="#994f2d" d="M 478.5,122.5 C 479.5,122.5 480.5,122.5 481.5,122.5C 480.791,123.404 479.791,123.737 478.5,123.5C 478.667,134.172 478.5,144.839 478,155.5C 473.664,199.17 467.498,242.503 459.5,285.5C 356.145,298.741 252.812,312.075 149.5,325.5C 148.167,324.5 146.833,323.5 145.5,322.5C 144.833,322.5 144.5,322.167 144.5,321.5C 144.5,320.833 144.167,320.5 143.5,320.5C 142.942,319.21 141.942,318.377 140.5,318C 131.222,316.535 121.888,315.702 112.5,315.5C 111.833,315.5 111.167,315.5 110.5,315.5C 108.369,314.686 106.036,314.186 103.5,314C 222.177,298.832 340.843,283.665 459.5,268.5C 467.52,220.174 472.853,171.507 475.5,122.5C 476.5,122.5 477.5,122.5 478.5,122.5 Z"/></g>
<g><path style="opacity:1" fill="#7a3a26" d="M 483.5,183.5 C 483.5,217.167 483.5,250.833 483.5,284.5C 481.571,302.861 477.238,320.861 470.5,338.5C 466.094,341.917 461.094,344.084 455.5,345C 442.171,345.5 428.837,345.667 415.5,345.5C 414.167,344.833 413.167,343.833 412.5,342.5C 427.844,340.832 443.177,338.999 458.5,337C 459.071,335.795 459.738,334.628 460.5,333.5C 466.799,308.637 472.632,283.637 478,258.5C 481.225,233.455 483.059,208.455 483.5,183.5 Z"/></g>
<g><path style="opacity:1" fill="#a6572f" d="M 471.5,120.5 C 471.833,120.5 472.167,120.5 472.5,120.5C 471.533,140.508 470.366,160.508 469,180.5C 465.324,204.768 462.157,229.102 459.5,253.5C 306.11,272.84 152.776,292.507 -0.5,312.5C -0.5,305.833 -0.5,299.167 -0.5,292.5C 152.744,272.466 306.078,252.799 459.5,233.5C 465.059,196.019 469.059,158.352 471.5,120.5 Z"/></g>
<g><path style="opacity:1" fill="#8f492b" d="M 481.5,122.5 C 484.328,123.655 486.995,124.989 489.5,126.5C 488.07,126.579 486.736,126.246 485.5,125.5C 483.125,172.758 478.291,219.758 471,266.5C 467.019,282.761 463.185,299.094 459.5,315.5C 437.438,317.699 415.438,320.366 393.5,323.5C 392.833,323.167 392.167,322.833 391.5,322.5C 390.833,322.5 390.5,322.167 390.5,321.5C 390.167,320.5 389.5,319.833 388.5,319.5C 386.189,317.932 383.522,317.098 380.5,317C 372.847,316.223 365.181,315.723 357.5,315.5C 346.495,315.333 335.495,315.5 324.5,316C 318.995,316.203 313.661,317.203 308.5,319C 305.519,322.593 303.685,326.76 303,331.5C 302.501,337.491 302.334,343.491 302.5,349.5C 301.566,348.432 301.232,347.099 301.5,345.5C 257.165,345.667 212.832,345.5 168.5,345C 161.964,338.631 155.631,332.131 149.5,325.5C 252.812,312.075 356.145,298.741 459.5,285.5C 467.498,242.503 473.664,199.17 478,155.5C 478.5,144.839 478.667,134.172 478.5,123.5C 479.791,123.737 480.791,123.404 481.5,122.5 Z"/></g>
<g><path style="opacity:1" fill="#fce7a2" d="M 357.5,315.5 C 362.331,316.768 367.331,317.768 372.5,318.5C 371.748,320.1 370.748,321.6 369.5,323C 354.689,331.952 338.689,334.452 321.5,330.5C 315.185,332.661 314.851,335.827 320.5,340C 332.181,340.167 343.848,340.667 355.5,341.5C 350.85,347.284 345.85,352.784 340.5,358C 328.214,357.864 315.88,358.031 303.5,358.5C 302.841,355.545 302.508,352.545 302.5,349.5C 302.334,343.491 302.501,337.491 303,331.5C 303.685,326.76 305.519,322.593 308.5,319C 313.661,317.203 318.995,316.203 324.5,316C 335.495,315.5 346.495,315.333 357.5,315.5 Z"/></g>
<g><path style="opacity:1" fill="#fce6a0" d="M 110.5,315.5 C 111.167,315.5 111.833,315.5 112.5,315.5C 117.363,316.739 122.363,317.739 127.5,318.5C 126.972,319.721 126.305,320.887 125.5,322C 110.169,332.056 93.5024,334.889 75.5,330.5C 74.2284,330.57 73.0617,330.903 72,331.5C 71.3333,333.5 71.3333,335.5 72,337.5C 73.5,339 75,340.5 76.5,342C 86.8494,342.168 97.1827,342.668 107.5,343.5C 103.689,348.479 99.6886,353.312 95.5,358C 87.6798,357.195 79.8464,357.361 72,358.5C 67.0823,358.085 62.2489,357.418 57.5,356.5C 57.2756,352.821 56.9422,349.154 56.5,345.5C 56.2832,339.768 56.7832,334.101 58,328.5C 58.5358,324.81 60.0358,321.644 62.5,319C 68.9894,317.037 75.6561,316.037 82.5,316C 91.8274,315.5 101.161,315.334 110.5,315.5 Z"/></g>
<g><path style="opacity:1" fill="#ed9f58" d="M 357.5,315.5 C 365.181,315.723 372.847,316.223 380.5,317C 383.522,317.098 386.189,317.932 388.5,319.5C 387.65,328.012 386.817,336.679 386,345.5C 384.725,347.717 383.725,350.051 383,352.5C 382.184,353.823 381.017,354.489 379.5,354.5C 381.489,342.832 380.322,331.498 376,320.5C 375.184,319.177 374.017,318.511 372.5,318.5C 367.331,317.768 362.331,316.768 357.5,315.5 Z"/></g>
<g><path style="opacity:1" fill="#ed9d54" d="M 112.5,315.5 C 121.888,315.702 131.222,316.535 140.5,318C 141.942,318.377 142.942,319.21 143.5,320.5C 142.746,330.707 141.746,341.04 140.5,351.5C 139.86,356.062 138.694,356.396 137,352.5C 135.811,354.233 134.644,355.9 133.5,357.5C 135.456,345.269 134.622,333.269 131,321.5C 129.961,320.29 128.794,319.29 127.5,318.5C 122.363,317.739 117.363,316.739 112.5,315.5 Z"/></g>
<g><path style="opacity:1" fill="#6c3225" d="M 511.5,322.5 C 511.5,365.167 511.5,407.833 511.5,450.5C 507.86,465.415 498.86,475.749 484.5,481.5C 483.972,480.279 483.305,479.113 482.5,478C 483.858,476.168 484.192,474.335 483.5,472.5C 485.524,465.496 487.19,458.663 488.5,452C 488.043,451.586 487.709,451.086 487.5,450.5C 488.833,445.5 490.167,440.5 491.5,435.5C 490.808,433.665 491.142,431.832 492.5,430C 492.5,427.667 492.5,425.333 492.5,423C 493.833,418 495.167,413 496.5,408C 495.646,406.119 495.979,404.286 497.5,402.5C 497.587,400.037 497.587,397.537 497.5,395C 498.293,393.915 498.96,392.748 499.5,391.5C 499.587,389.037 499.587,386.537 499.5,384C 500.293,382.915 500.96,381.748 501.5,380.5C 501.377,377.956 501.377,375.456 501.5,373C 503.392,370.327 503.725,367.66 502.5,365C 503.308,364.692 503.975,364.192 504.5,363.5C 505.028,360.571 505.028,357.405 504.5,354C 505.167,353.333 505.833,352.667 506.5,352C 506.042,349.249 506.042,346.249 506.5,343C 508.234,336.053 509.901,329.22 511.5,322.5 Z"/></g>
<g><path style="opacity:1" fill="#692f21" d="M 483.5,284.5 C 483.667,295.172 483.5,305.839 483,316.5C 482.044,322.743 479.711,328.41 476,333.5C 475.833,371.002 475.333,408.336 474.5,445.5C 474.5,441.833 474.5,438.167 474.5,434.5C 474.5,429.833 474.5,425.167 474.5,420.5C 474.5,414.5 474.5,408.5 474.5,402.5C 474.5,395.167 474.5,387.833 474.5,380.5C 461.826,378.981 449.326,377.981 437,377.5C 423.462,380.319 409.629,384.486 395.5,390C 392.905,390.226 390.405,390.726 388,391.5C 387.667,391.167 387.333,390.833 387,390.5C 383.952,392.167 380.952,393.834 378,395.5C 377.586,395.043 377.086,394.709 376.5,394.5C 369.569,395.599 362.736,397.599 356,400.5C 354.333,400.5 352.667,400.5 351,400.5C 349.488,401.257 348.154,402.257 347,403.5C 345.586,402.587 344.086,402.587 342.5,403.5C 340.833,402.167 339.167,400.833 337.5,399.5C 335.5,397.167 333.5,394.833 331.5,392.5C 333.584,391.752 335.584,391.752 337.5,392.5C 340.095,391.287 342.595,389.953 345,388.5C 345.873,388.735 346.707,389.069 347.5,389.5C 353.022,387.518 358.689,385.851 364.5,384.5C 365.442,384.608 366.275,384.941 367,385.5C 367.5,384.333 368.333,383.5 369.5,383C 372.832,382.751 375.999,381.918 379,380.5C 379.873,380.735 380.707,381.069 381.5,381.5C 385.833,379.5 390.167,377.5 394.5,375.5C 398.807,376.138 402.64,374.805 406,371.5C 406.333,371.833 406.667,372.167 407,372.5C 409.602,369.932 412.602,369.266 416,370.5C 416.333,369.833 416.667,369.167 417,368.5C 418.726,369.576 420.559,369.743 422.5,369C 425.526,366.805 428.859,365.305 432.5,364.5C 427.182,357.849 421.515,351.515 415.5,345.5C 428.837,345.667 442.171,345.5 455.5,345C 461.094,344.084 466.094,341.917 470.5,338.5C 477.238,320.861 481.571,302.861 483.5,284.5 Z"/></g>
<g><path style="opacity:1" fill="#fbd383" d="M 127.5,318.5 C 128.794,319.29 129.961,320.29 131,321.5C 134.622,333.269 135.456,345.269 133.5,357.5C 123.242,359.116 112.909,359.449 102.5,358.5C 87.873,360.037 73.2063,360.704 58.5,360.5C 58.1667,359.167 57.8333,357.833 57.5,356.5C 62.2489,357.418 67.0823,358.085 72,358.5C 79.8464,357.361 87.6798,357.195 95.5,358C 99.6886,353.312 103.689,348.479 107.5,343.5C 97.1827,342.668 86.8494,342.168 76.5,342C 75,340.5 73.5,339 72,337.5C 71.3333,335.5 71.3333,333.5 72,331.5C 73.0617,330.903 74.2284,330.57 75.5,330.5C 93.5024,334.889 110.169,332.056 125.5,322C 126.305,320.887 126.972,319.721 127.5,318.5 Z"/></g>
<g><path style="opacity:1" fill="#fbd283" d="M 372.5,318.5 C 374.017,318.511 375.184,319.177 376,320.5C 380.322,331.498 381.489,342.832 379.5,354.5C 379.5,355.167 379.5,355.833 379.5,356.5C 354.591,358.543 329.591,359.876 304.5,360.5C 303.662,360.158 303.328,359.492 303.5,358.5C 315.88,358.031 328.214,357.864 340.5,358C 345.85,352.784 350.85,347.284 355.5,341.5C 343.848,340.667 332.181,340.167 320.5,340C 314.851,335.827 315.185,332.661 321.5,330.5C 338.689,334.452 354.689,331.952 369.5,323C 370.748,321.6 371.748,320.1 372.5,318.5 Z"/></g>
<g><path style="opacity:1" fill="#f18024" d="M 144.5,321.5 C 144.5,322.167 144.833,322.5 145.5,322.5C 149.062,335.413 149.396,348.413 146.5,361.5C 145.069,361.119 144.236,360.119 144,358.5C 143.173,345.993 143.34,333.66 144.5,321.5 Z"/></g>
<g><path style="opacity:1" fill="#6b3021" d="M 145.5,322.5 C 146.833,323.5 148.167,324.5 149.5,325.5C 155.631,332.131 161.964,338.631 168.5,345C 212.832,345.5 257.165,345.667 301.5,345.5C 301.232,347.099 301.566,348.432 302.5,349.5C 302.508,352.545 302.841,355.545 303.5,358.5C 303.328,359.492 303.662,360.158 304.5,360.5C 304.833,362.5 305.167,364.5 305.5,366.5C 289.181,365.501 272.848,364.667 256.5,364C 257.5,363.667 258.5,363.333 259.5,363C 250.167,362.667 240.833,362.333 231.5,362C 232.833,361.667 234.167,361.333 235.5,361C 225.833,360.667 216.167,360.333 206.5,360C 207.833,359.667 209.167,359.333 210.5,359C 201.506,358.5 192.506,358.334 183.5,358.5C 183.33,359.822 183.663,360.989 184.5,362C 181.898,362.977 179.398,364.144 177,365.5C 176.667,365.167 176.333,364.833 176,364.5C 145.387,373.408 115.553,382.741 86.5,392.5C 84.8333,391.167 83.1667,389.833 81.5,388.5C 76.3697,382.869 71.0363,377.369 65.5,372C 65.7284,371.601 66.0618,371.435 66.5,371.5C 90.5131,374.218 114.513,374.051 138.5,371C 143.613,369.962 146.28,366.795 146.5,361.5C 149.396,348.413 149.062,335.413 145.5,322.5 Z"/></g>
<g><path style="opacity:1" fill="#723523" d="M 8.5,336.5 C 13.3351,340.087 18.6684,342.92 24.5,345C 35.1615,345.5 45.8281,345.667 56.5,345.5C 56.9422,349.154 57.2756,352.821 57.5,356.5C 57.8333,357.833 58.1667,359.167 58.5,360.5C 59.038,362.117 59.3713,363.784 59.5,365.5C 40.4549,364.785 23.4549,363.785 8.5,362.5C 8.5,353.833 8.5,345.167 8.5,336.5 Z"/></g>
<g><path style="opacity:1" fill="#5f281e" d="M 391.5,322.5 C 392.167,322.833 392.833,323.167 393.5,323.5C 399.5,330.167 405.833,336.5 412.5,342.5C 413.167,343.833 414.167,344.833 415.5,345.5C 421.515,351.515 427.182,357.849 432.5,364.5C 428.859,365.305 425.526,366.805 422.5,369C 420.559,369.743 418.726,369.576 417,368.5C 416.667,369.167 416.333,369.833 416,370.5C 412.602,369.266 409.602,369.932 407,372.5C 406.667,372.167 406.333,371.833 406,371.5C 402.64,374.805 398.807,376.138 394.5,375.5C 390.167,377.5 385.833,379.5 381.5,381.5C 380.707,381.069 379.873,380.735 379,380.5C 375.999,381.918 372.832,382.751 369.5,383C 368.333,383.5 367.5,384.333 367,385.5C 366.275,384.941 365.442,384.608 364.5,384.5C 358.689,385.851 353.022,387.518 347.5,389.5C 346.707,389.069 345.873,388.735 345,388.5C 342.595,389.953 340.095,391.287 337.5,392.5C 335.584,391.752 333.584,391.752 331.5,392.5C 329.833,391.167 328.167,389.833 326.5,388.5C 320.833,382.5 315.167,376.5 309.5,370.5C 335.523,374.571 361.523,374.404 387.5,370C 389.049,368.786 390.215,367.286 391,365.5C 395.456,351.211 395.623,336.878 391.5,322.5 Z"/></g>
<g><path style="opacity:1" fill="#eb8d41" d="M 388.5,319.5 C 389.5,319.833 390.167,320.5 390.5,321.5C 389.669,335.994 389.169,350.661 389,365.5C 387.806,366.43 386.473,367.097 385,367.5C 382.157,366.237 379.324,366.237 376.5,367.5C 377.038,365.883 377.371,364.216 377.5,362.5C 378.363,360.579 379.029,358.579 379.5,356.5C 379.5,355.833 379.5,355.167 379.5,354.5C 381.017,354.489 382.184,353.823 383,352.5C 383.725,350.051 384.725,347.717 386,345.5C 386.817,336.679 387.65,328.012 388.5,319.5 Z"/></g>
<g><path style="opacity:1" fill="#ef832a" d="M 390.5,321.5 C 390.5,322.167 390.833,322.5 391.5,322.5C 395.623,336.878 395.456,351.211 391,365.5C 390.215,367.286 389.049,368.786 387.5,370C 361.523,374.404 335.523,374.571 309.5,370.5C 309.5,369.833 309.167,369.5 308.5,369.5C 330.975,367.761 353.642,367.094 376.5,367.5C 379.324,366.237 382.157,366.237 385,367.5C 386.473,367.097 387.806,366.43 389,365.5C 389.169,350.661 389.669,335.994 390.5,321.5 Z"/></g>
<g><path style="opacity:1" fill="#f2b66d" d="M 133.5,357.5 C 133.167,358.833 132.833,360.167 132.5,361.5C 108.393,363.636 84.393,365.303 60.5,366.5C 59.8333,366.5 59.5,366.167 59.5,365.5C 59.3713,363.784 59.038,362.117 58.5,360.5C 73.2063,360.704 87.873,360.037 102.5,358.5C 112.909,359.449 123.242,359.116 133.5,357.5 Z"/></g>
<g><path style="opacity:1" fill="#f2b76d" d="M 379.5,356.5 C 379.029,358.579 378.363,360.579 377.5,362.5C 353.433,363.661 329.433,364.995 305.5,366.5C 305.167,364.5 304.833,362.5 304.5,360.5C 329.591,359.876 354.591,358.543 379.5,356.5 Z"/></g>
<g><path style="opacity:1" fill="#efa458" d="M 132.5,361.5 C 132.528,363.582 131.861,365.416 130.5,367C 107.646,367.112 84.9798,367.946 62.5,369.5C 61.0937,369.027 60.427,368.027 60.5,366.5C 84.393,365.303 108.393,363.636 132.5,361.5 Z"/></g>
<g><path style="opacity:1" fill="#efa358" d="M 377.5,362.5 C 377.371,364.216 377.038,365.883 376.5,367.5C 353.642,367.094 330.975,367.761 308.5,369.5C 307.167,368.833 306.167,367.833 305.5,366.5C 329.433,364.995 353.433,363.661 377.5,362.5 Z"/></g>
<g><path style="opacity:1" fill="#ee8a34" d="M 143.5,320.5 C 144.167,320.5 144.5,320.833 144.5,321.5C 143.34,333.66 143.173,345.993 144,358.5C 144.236,360.119 145.069,361.119 146.5,361.5C 146.28,366.795 143.613,369.962 138.5,371C 114.513,374.051 90.5131,374.218 66.5,371.5C 65.3285,370.655 63.9952,369.989 62.5,369.5C 84.9798,367.946 107.646,367.112 130.5,367C 131.861,365.416 132.528,363.582 132.5,361.5C 132.833,360.167 133.167,358.833 133.5,357.5C 134.644,355.9 135.811,354.233 137,352.5C 138.694,356.396 139.86,356.062 140.5,351.5C 141.746,341.04 142.746,330.707 143.5,320.5 Z"/></g>
<g><path style="opacity:1" fill="#773824" d="M 305.5,366.5 C 306.167,367.833 307.167,368.833 308.5,369.5C 309.167,369.5 309.5,369.833 309.5,370.5C 315.167,376.5 320.833,382.5 326.5,388.5C 273.569,381.572 220.403,377.572 167,376.5C 141.93,382.417 117.43,390.084 93.5,399.5C 90.8333,397.5 88.5,395.167 86.5,392.5C 115.553,382.741 145.387,373.408 176,364.5C 176.333,364.833 176.667,365.167 177,365.5C 179.398,364.144 181.898,362.977 184.5,362C 183.663,360.989 183.33,359.822 183.5,358.5C 192.506,358.334 201.506,358.5 210.5,359C 209.167,359.333 207.833,359.667 206.5,360C 216.167,360.333 225.833,360.667 235.5,361C 234.167,361.333 232.833,361.667 231.5,362C 240.833,362.333 250.167,362.667 259.5,363C 258.5,363.333 257.5,363.667 256.5,364C 272.848,364.667 289.181,365.501 305.5,366.5 Z"/></g>
<g><path style="opacity:1" fill="#833f26" d="M 8.5,362.5 C 23.4549,363.785 40.4549,364.785 59.5,365.5C 59.5,366.167 59.8333,366.5 60.5,366.5C 60.427,368.027 61.0937,369.027 62.5,369.5C 63.9952,369.989 65.3285,370.655 66.5,371.5C 66.0618,371.435 65.7284,371.601 65.5,372C 71.0363,377.369 76.3697,382.869 81.5,388.5C 57.091,387.271 32.7577,385.604 8.5,383.5C 8.5,376.5 8.5,369.5 8.5,362.5 Z"/></g>
<g><path style="opacity:1" fill="#7f3d26" d="M 326.5,388.5 C 328.167,389.833 329.833,391.167 331.5,392.5C 333.5,394.833 335.5,397.167 337.5,399.5C 328.123,399.217 318.79,398.384 309.5,397C 310.833,396.667 312.167,396.333 313.5,396C 292.012,396.314 270.679,394.647 249.5,391C 224.445,389.697 199.445,387.697 174.5,385C 166.13,384.566 157.963,384.399 150,384.5C 147,385.833 144,387.167 141,388.5C 140.667,388.167 140.333,387.833 140,387.5C 128.442,391.572 116.442,395.239 104,398.5C 103.586,398.043 103.086,397.709 102.5,397.5C 99.8122,398.513 97.1456,399.513 94.5,400.5C 93.8333,400.5 93.5,400.167 93.5,399.5C 117.43,390.084 141.93,382.417 167,376.5C 220.403,377.572 273.569,381.572 326.5,388.5 Z"/></g>
<g><path style="opacity:1" fill="#8a452a" d="M 337.5,399.5 C 339.167,400.833 340.833,402.167 342.5,403.5C 345.272,406.694 348.272,409.694 351.5,412.5C 353.834,415.666 356.667,418.333 360,420.5C 369.093,412.088 379.427,407.755 391,407.5C 391.333,406.833 391.667,406.167 392,405.5C 405.501,407.336 419.335,409.169 433.5,411C 432.5,411.333 431.5,411.667 430.5,412C 432.167,412.333 433.833,412.667 435.5,413C 387.79,425.177 340.124,437.511 292.5,450C 199,452.77 105.667,455.603 12.5,458.5C 12.5,458.833 12.5,459.167 12.5,459.5C 10.7329,457.208 9.73292,454.542 9.5,451.5C 47.1747,451.62 84.8414,451.12 122.5,450C 171.543,437.489 220.543,424.823 269.5,412C 244.912,408.953 217.579,406.62 187.5,405C 188.833,404.667 190.167,404.333 191.5,404C 166.78,402.438 144.78,400.771 125.5,399C 117.534,401.561 109.534,404.061 101.5,406.5C 98.56,405.228 96.2266,403.228 94.5,400.5C 97.1456,399.513 99.8122,398.513 102.5,397.5C 103.086,397.709 103.586,398.043 104,398.5C 116.442,395.239 128.442,391.572 140,387.5C 140.333,387.833 140.667,388.167 141,388.5C 144,387.167 147,385.833 150,384.5C 157.963,384.399 166.13,384.566 174.5,385C 199.445,387.697 224.445,389.697 249.5,391C 270.679,394.647 292.012,396.314 313.5,396C 312.167,396.333 310.833,396.667 309.5,397C 318.79,398.384 328.123,399.217 337.5,399.5 Z"/></g>
<g><path style="opacity:1" fill="#773825" d="M 474.5,402.5 C 452.353,401.481 430.353,399.148 408.5,395.5C 407.803,397.385 406.803,397.718 405.5,396.5C 403.566,396.901 402.066,397.901 401,399.5C 399.732,399.384 398.398,399.051 397,398.5C 396.676,400.569 395.842,400.902 394.5,399.5C 393.193,400.816 391.693,401.816 390,402.5C 388.732,402.384 387.398,402.051 386,401.5C 383.595,402.274 381.095,402.774 378.5,403C 377.338,403.827 376.171,404.66 375,405.5C 366.822,407.175 358.988,409.509 351.5,412.5C 348.272,409.694 345.272,406.694 342.5,403.5C 344.086,402.587 345.586,402.587 347,403.5C 348.154,402.257 349.488,401.257 351,400.5C 352.667,400.5 354.333,400.5 356,400.5C 362.736,397.599 369.569,395.599 376.5,394.5C 377.086,394.709 377.586,395.043 378,395.5C 380.952,393.834 383.952,392.167 387,390.5C 387.333,390.833 387.667,391.167 388,391.5C 390.405,390.726 392.905,390.226 395.5,390C 409.629,384.486 423.462,380.319 437,377.5C 449.326,377.981 461.826,378.981 474.5,380.5C 474.5,387.833 474.5,395.167 474.5,402.5 Z"/></g>
<g><path style="opacity:1" fill="#803e28" d="M 474.5,402.5 C 474.5,408.5 474.5,414.5 474.5,420.5C 435.774,430.015 397.107,439.848 358.5,450C 243.219,454.865 127.885,457.699 12.5,458.5C 105.667,455.603 199,452.77 292.5,450C 340.124,437.511 387.79,425.177 435.5,413C 433.833,412.667 432.167,412.333 430.5,412C 431.5,411.667 432.5,411.333 433.5,411C 419.335,409.169 405.501,407.336 392,405.5C 391.667,406.167 391.333,406.833 391,407.5C 379.427,407.755 369.093,412.088 360,420.5C 356.667,418.333 353.834,415.666 351.5,412.5C 358.988,409.509 366.822,407.175 375,405.5C 376.171,404.66 377.338,403.827 378.5,403C 381.095,402.774 383.595,402.274 386,401.5C 387.398,402.051 388.732,402.384 390,402.5C 391.693,401.816 393.193,400.816 394.5,399.5C 395.842,400.902 396.676,400.569 397,398.5C 398.398,399.051 399.732,399.384 401,399.5C 402.066,397.901 403.566,396.901 405.5,396.5C 406.803,397.718 407.803,397.385 408.5,395.5C 430.353,399.148 452.353,401.481 474.5,402.5 Z"/></g>
<g><path style="opacity:1" fill="#9f532e" d="M 8.5,402.5 C 39.1452,404.665 69.8119,406.498 100.5,408C 101.839,410.016 103.672,411.183 106,411.5C 109.123,410.404 112.289,409.404 115.5,408.5C 124.184,409.502 132.85,410.669 141.5,412C 98.2898,423.736 54.9564,435.069 11.5,446C 10.3094,446.698 9.30943,447.531 8.5,448.5C 8.5,433.167 8.5,417.833 8.5,402.5 Z"/></g>
<g><path style="opacity:1" fill="#954c2c" d="M 8.5,383.5 C 32.7577,385.604 57.091,387.271 81.5,388.5C 83.1667,389.833 84.8333,391.167 86.5,392.5C 88.5,395.167 90.8333,397.5 93.5,399.5C 93.5,400.167 93.8333,400.5 94.5,400.5C 96.2266,403.228 98.56,405.228 101.5,406.5C 109.534,404.061 117.534,401.561 125.5,399C 144.78,400.771 166.78,402.438 191.5,404C 190.167,404.333 188.833,404.667 187.5,405C 217.579,406.62 244.912,408.953 269.5,412C 220.543,424.823 171.543,437.489 122.5,450C 84.8414,451.12 47.1747,451.62 9.5,451.5C 8.89022,450.609 8.55688,449.609 8.5,448.5C 9.30943,447.531 10.3094,446.698 11.5,446C 54.9564,435.069 98.2898,423.736 141.5,412C 132.85,410.669 124.184,409.502 115.5,408.5C 112.289,409.404 109.123,410.404 106,411.5C 103.672,411.183 101.839,410.016 100.5,408C 69.8119,406.498 39.1452,404.665 8.5,402.5C 8.5,396.167 8.5,389.833 8.5,383.5 Z"/></g>
<g><path style="opacity:1" fill="#793a27" d="M 474.5,420.5 C 474.5,425.167 474.5,429.833 474.5,434.5C 454.911,439.814 435.244,444.981 415.5,450C 289.715,455.301 163.881,459.134 38,461.5C 29.8037,461.502 21.9703,462.169 14.5,463.5C 13.3263,462.486 12.6596,461.153 12.5,459.5C 12.5,459.167 12.5,458.833 12.5,458.5C 127.885,457.699 243.219,454.865 358.5,450C 397.107,439.848 435.774,430.015 474.5,420.5 Z"/></g>
<g><path style="opacity:1" fill="#662d22" d="M 473.5,452.5 C 473.461,453.583 473.127,454.583 472.5,455.5C 377.272,461.659 281.938,466.159 186.5,469C 188.167,469.333 189.833,469.667 191.5,470C 185.897,471.124 180.231,471.79 174.5,472C 183.833,472.333 193.167,472.667 202.5,473C 201.167,473.333 199.833,473.667 198.5,474C 200.5,474.333 202.5,474.667 204.5,475C 288.162,476.155 371.828,476.822 455.5,477C 453.423,478.705 451.09,479.872 448.5,480.5C 310.001,479.5 171.334,479.167 32.5,479.5C 27.3346,477.662 23.0013,474.662 19.5,470.5C 24.0675,468.715 29.0675,467.882 34.5,468C 180.941,464.669 327.274,459.502 473.5,452.5 Z"/></g>
<g><path style="opacity:1" fill="#713524" d="M 474.5,434.5 C 474.5,438.167 474.5,441.833 474.5,445.5C 474.702,447.95 474.369,450.283 473.5,452.5C 327.274,459.502 180.941,464.669 34.5,468C 29.0675,467.882 24.0675,468.715 19.5,470.5C 17.4776,468.469 15.8109,466.135 14.5,463.5C 21.9703,462.169 29.8037,461.502 38,461.5C 163.881,459.134 289.715,455.301 415.5,450C 435.244,444.981 454.911,439.814 474.5,434.5 Z"/></g>
<g><path style="opacity:1" fill="#6e3325" d="M 32.5,479.5 C 171.334,479.167 310.001,479.5 448.5,480.5C 443.711,481.717 439.045,483.051 434.5,484.5C 305.833,484.667 177.166,484.5 48.5,484C 42.636,483.985 37.3026,482.485 32.5,479.5 Z"/></g>
</svg>
